# xmcd
#
# Track frame offsets: 
#        150
#        18870
#        37022
#        54252
#        69357
#        84830
#        99307
#        113742
#        129992
#        151560
#        161852
#        173527
#        192255
#        204465
#
# Disc length: 2899 seconds
#
# Revision: 0
# Processed by: cddbd v1.5.2PL0 Copyright (c) Steve Scherf et al.
# Submitted via: ExactAudioCopy v1.0b1
#
DISCID=9e0b510e
DTITLE=Steve Fox - Steve Fox
DYEAR=2001
DGENRE=Country
TTITLE0=Why
TTITLE1=Daddy Won't Sell the Farm
TTITLE2=My Older Brother
TTITLE3=I Just Don't Know Anymore
TTITLE4=Down in the Mojave
TTITLE5=Somebody loves me
TTITLE6=Straight Through It
TTITLE7=So Far, Not So Good
TTITLE8=Fifty Miles to Waco
TTITLE9=Waitin' For Love
TTITLE10=When the Light Is Red
TTITLE11=I'm Still Listenin'
TTITLE12=Maybe One Day
TTITLE13=Bye, Bye Bird
EXTD=
EXTT0=
EXTT1=
EXTT2=
EXTT3=
EXTT4=
EXTT5=
EXTT6=
EXTT7=
EXTT8=
EXTT9=
EXTT10=
EXTT11=
EXTT12=
EXTT13=
PLAYORDER=
